<svg width="198" height="228" viewBox="0 0 198 228" fill="none" xmlns="http://www.w3.org/2000/svg">
<path fill-rule="evenodd" clip-rule="evenodd" d="M66 171H0L33 228H99L66 171Z" fill="#10B981"/>
<path fill-rule="evenodd" clip-rule="evenodd" d="M99 0L66 57L33 114L0 171H66L99 114L132 57L165 0H99Z" fill="#10B981"/>
<path d="M198 171L165 114L132 171H198Z" fill="#34D399"/>
<path d="M198 171L165 114L132 171H198Z" stroke="white"/>
<path fill-rule="evenodd" clip-rule="evenodd" d="M165 0L198 57L165 114L132 171L99 228L66 171L99 114L132 57L165 0Z" fill="#34D399"/>
<mask id="path-5-inside-1_309_356" fill="white">
<path fill-rule="evenodd" clip-rule="evenodd" d="M66 57L99 0H165L198 57L165 114L198 171H132L99 228H33L0 171L33 114L66 57Z"/>
</mask>
<path d="M99 0V-2H97.8469L97.2691 -1.00207L99 0ZM165 0L166.731 -1.00207L166.153 -2H165V0ZM198 57L199.731 58.0021L200.311 57L199.731 55.9979L198 57ZM165 114L163.269 112.998L162.689 114L163.269 115.002L165 114ZM198 171V173H201.469L199.731 169.998L198 171ZM132 171V169H130.847L130.269 169.998L132 171ZM99 228V230H100.153L100.731 229.002L99 228ZM33 228L31.2691 229.002L31.8469 230H33V228ZM0 171L-1.73085 169.998L-2.311 171L-1.73085 172.002L0 171ZM97.2691 -1.00207L64.2691 55.9979L67.7309 58.0021L100.731 1.00207L97.2691 -1.00207ZM165 -2H99V2H165V-2ZM163.269 1.00207L196.269 58.0021L199.731 55.9979L166.731 -1.00207L163.269 1.00207ZM196.269 55.9979L163.269 112.998L166.731 115.002L199.731 58.0021L196.269 55.9979ZM163.269 115.002L196.269 172.002L199.731 169.998L166.731 112.998L163.269 115.002ZM198 169H132V173H198V169ZM130.269 169.998L97.2691 226.998L100.731 229.002L133.731 172.002L130.269 169.998ZM33 230H99V226H33V230ZM-1.73085 172.002L31.2691 229.002L34.7309 226.998L1.73085 169.998L-1.73085 172.002ZM31.2691 112.998L-1.73085 169.998L1.73085 172.002L34.7309 115.002L31.2691 112.998ZM64.2691 55.9979L31.2691 112.998L34.7309 115.002L67.7309 58.0021L64.2691 55.9979Z" fill="white" mask="url(#path-5-inside-1_309_356)"/>
</svg>
